# xmcd
#
# Track frame offsets: 
#        150
#        11990
#        28497
#        46742
#        58717
#        73917
#        85035
#        103037
#        121295
#        134720
#        149320
#
# Disc length: 2212 seconds
#
# Revision: 4
# Processed by: cddbd v1.5.1PL0 Copyright (c) Steve Scherf et al.
# Submitted via: ExactAudioCopy v0.95a4
#
DISCID=a508a20b
DTITLE=谭咏麟 - 忘不了您 (宝丽金20世纪光辉印记)
DYEAR=1981
DGENRE=Pop
TTITLE0=想将来
TTITLE1=天边一只雁
TTITLE2=山野闲情
TTITLE3=情两牵
TTITLE4=我心喜欢你
TTITLE5=寻乐真岩数
TTITLE6=忘不了您
TTITLE7=爱上您
TTITLE8=不必伸手给我
TTITLE9=爱意怎挡
TTITLE10=小风波
EXTD=YEAR: 1981
EXTT0=
EXTT1=
EXTT2=
EXTT3=
EXTT4=
EXTT5=
EXTT6=
EXTT7=
EXTT8=
EXTT9=
EXTT10=
PLAYORDER=
